<?xml version="1.0" encoding="UTF-8"?>
<svg width="35px" height="26px" viewBox="0 0 35 26" version="1.1" xmlns="http://www.w3.org/2000/svg" xmlns:xlink="http://www.w3.org/1999/xlink">
    <!-- Generator: Sketch 58 (84663) - https://sketch.com -->
    <title>image</title>
    <desc>Created with Sketch.</desc>
    <g id="Page-1" stroke="none" stroke-width="1" fill="none" fill-rule="evenodd">
        <path d="M31.4166667,0 L3.25,0 C1.45505208,0 0,1.45505208 0,3.25 L0,22.75 C0,24.5449479 1.45505208,26 3.25,26 L31.4166667,26 C33.2116146,26 34.6666667,24.5449479 34.6666667,22.75 L34.6666667,3.25 C34.6666667,1.45505208 33.2116146,0 31.4166667,0 Z M31.0104167,22.75 L3.65625,22.75 C3.43188432,22.75 3.25,22.5681157 3.25,22.34375 L3.25,3.65625 C3.25,3.43188432 3.43188432,3.25 3.65625,3.25 L31.0104167,3.25 C31.2347823,3.25 31.4166667,3.43188432 31.4166667,3.65625 L31.4166667,22.34375 C31.4166667,22.5681157 31.2347823,22.75 31.0104167,22.75 L31.0104167,22.75 Z M8.66666667,5.95833333 C7.17092187,5.95833333 5.95833333,7.17092187 5.95833333,8.66666667 C5.95833333,10.1624115 7.17092187,11.375 8.66666667,11.375 C10.1624115,11.375 11.375,10.1624115 11.375,8.66666667 C11.375,7.17092187 10.1624115,5.95833333 8.66666667,5.95833333 Z M6.5,19.5 L28.1666667,19.5 L28.1666667,14.0833333 L22.2411719,8.15783854 C21.9238906,7.84055729 21.4094427,7.84055729 21.0920937,8.15783854 L13,16.25 L10.3245052,13.5745052 C10.007224,13.257224 9.49277604,13.257224 9.17542708,13.5745052 L6.5,16.25 L6.5,19.5 Z" id="image" fill="#000000" fill-rule="nonzero"></path>
    </g>
</svg>